HIERARCHY
ROOT Hips
{
	OFFSET 0.000000 0.000000 0.000000 
	CHANNELS 6 Xposition Yposition Zposition Zrotation Yrotation Xrotation
	JOINT LeftUpLeg
	{
		OFFSET 1.363060 -1.794630 0.839290 
		CHANNELS 3 Zrotation Yrotation Xrotation
		JOINT LeftLeg
		{
			OFFSET 2.448110 -6.726130 0.000000 
			CHANNELS 3 Zrotation Yrotation Xrotation
			JOINT LeftFoot
			{
				OFFSET 2.562200 -7.039590 0.000000 
				CHANNELS 3 Zrotation Yrotation Xrotation
				JOINT LeftToeBase
				{
					OFFSET 0.157640 -0.433110 2.322550 
					CHANNELS 3 Zrotation Yrotation Xrotation
					End Site
					{
						OFFSET 0.000000 0.000000 0.000000 
					}
				}
			}
		}
	}
	JOINT RightUpLeg
	{
		OFFSET -1.305520 -1.794630 0.839290 
		CHANNELS 3 Zrotation Yrotation Xrotation
		JOINT RightLeg
		{
			OFFSET -2.542530 -6.985550 0.000000 
			CHANNELS 3 Zrotation Yrotation Xrotation
			JOINT RightFoot
			{
				OFFSET -2.568260 -7.056230 0.000000 
				CHANNELS 3 Zrotation Yrotation Xrotation
				JOINT RightToeBase
				{
					OFFSET -0.164730 -0.452590 2.363150 
					CHANNELS 3 Zrotation Yrotation Xrotation
					End Site
					{
						OFFSET 0.000000 0.000000 0.000000 
					}
				}
			}
		}
	}
	JOINT Spine
	{
		OFFSET 0.028270 2.035590 -0.193380 
		CHANNELS 3 Zrotation Yrotation Xrotation
		JOINT Spine1
		{
			OFFSET 0.056720 2.048850 -0.042750 
			CHANNELS 3 Zrotation Yrotation Xrotation
			JOINT Neck1
			{
				OFFSET -0.054170 1.746240 0.172020 
				CHANNELS 3 Zrotation Yrotation Xrotation
				JOINT Head
				{
					OFFSET 0.104070 1.761360 -0.123970 
					CHANNELS 3 Zrotation Yrotation Xrotation
					End Site
					{
						OFFSET 0.000000 0.000000 0.000000 
					}
				}
			}
			JOINT LeftArm
			{
				OFFSET 3.362410 1.200890 -0.311210 
				CHANNELS 3 Zrotation Yrotation Xrotation
				JOINT LeftForeArm
				{
					OFFSET 4.983000 -0.000000 -0.000000 
					CHANNELS 3 Zrotation Yrotation Xrotation
					JOINT LeftHand
					{
						OFFSET 3.483560 -0.000000 -0.000000 
						CHANNELS 3 Zrotation Yrotation Xrotation
						JOINT LeftHandIndex1
						{
							OFFSET 0.715260 -0.000000 -0.000000 
							CHANNELS 3 Zrotation Yrotation Xrotation
							End Site
							{
								OFFSET 0.000000 0.000000 0.000000 
							}
						}
					}
				}
			}
			JOINT RightArm
			{
				OFFSET -3.136600 1.374050 -0.404650 
				CHANNELS 3 Zrotation Yrotation Xrotation
				JOINT RightForeArm
				{
					OFFSET -5.241900 -0.000000 -0.000000 
					CHANNELS 3 Zrotation Yrotation Xrotation
					JOINT RightHand
					{
						OFFSET -3.444170 -0.000000 -0.000000 
						CHANNELS 3 Zrotation Yrotation Xrotation
						JOINT RightHandIndex1
						{
							OFFSET -0.622530 -0.000000 -0.000000 
							CHANNELS 3 Zrotation Yrotation Xrotation
							End Site
							{
								OFFSET 0.000000 0.000000 0.000000 
							}
						}
					}
				}
			}
		}
	}
}
MOTION
Frames: 10
Frame Time: 0.041667
41.951582 17.777453 6.553575 -113.834071 -82.695745 124.960688 -8.249201 -6.470980 -6.781290 -0.508192 3.623587 8.631359 -1.185615 8.045898 0.268525 0.032100 1.156700 3.180100 27.491413 5.239312 -10.064109 -0.209669 -5.780004 14.614659 1.583516 -10.995968 -4.569415 -0.776400 -5.625900 15.702800 1.237326 -0.810935 -4.390112 6.046103 -0.646706 2.509540 11.094868 -4.382857 0.949092 4.333600 -1.476800 6.523900 -98.068302 -6.184004 9.229011 9.176995 -27.941901 -2.855231 2.514052 1.937121 32.957607 -7.125000 0.000000 0.000000 86.627573 10.822948 20.178035 -12.259738 25.032726 -2.834083 -0.620000 0.345793 13.351363 7.125000 0.000000 0.000000 
41.948688 17.776854 6.548485 -113.111567 -82.769133 124.205958 -8.269352 -6.480168 -6.753919 -0.508612 3.621291 8.632652 -1.165125 7.954238 0.313415 0.033700 1.185800 3.260200 27.477722 5.222784 -10.039257 -0.210042 -5.783037 14.622824 1.595990 -11.058216 -4.650633 -0.768500 -5.598000 15.622400 1.205770 -0.815969 -4.438556 5.857337 -0.647222 2.326140 11.141436 -4.416358 1.075942 4.357400 -1.488400 6.556800 -97.738183 -6.209054 9.092474 9.245528 -27.946138 -2.871575 2.517686 1.943750 32.626606 -7.125000 0.000000 0.000000 86.884121 10.595861 19.830510 -12.042474 24.731019 -2.781055 -0.582734 0.415873 13.564444 7.125000 0.000000 0.000000 
41.946792 17.776355 6.543993 -112.471502 -82.855994 123.541265 -8.303433 -6.498268 -6.725611 -0.509746 3.618215 8.629828 -1.138891 7.835440 0.338142 0.036500 1.232800 3.389600 27.441792 5.159049 -10.042124 -0.212699 -5.795042 14.654733 1.606720 -11.112064 -4.708884 -0.766900 -5.592200 15.605600 1.204981 -0.865887 -4.440083 5.811843 -0.671854 2.338078 11.111360 -4.370753 1.130008 4.352400 -1.471500 6.535400 -97.539004 -6.319819 8.839767 9.298635 -27.966427 -2.891028 2.527481 1.959129 32.355101 -7.125000 0.000000 0.000000 87.060455 10.485698 19.602671 -11.847989 24.440569 -2.695110 -0.579384 0.430204 13.817107 7.125000 0.000000 0.000000 
41.944596 17.775357 6.538803 -111.613208 -82.947234 122.564176 -8.279954 -6.490241 -6.719834 -0.506797 3.615942 8.662037 -1.110463 7.686242 0.354945 0.032000 1.155000 3.175300 27.446347 5.155910 -9.988627 -0.213544 -5.785227 14.646655 1.626812 -11.203451 -4.755624 -0.769700 -5.602300 15.634700 1.551481 -1.330524 -4.961995 7.006175 -0.884831 1.233669 11.180132 -3.215240 -1.165739 4.654300 -1.223500 3.997000 -98.284643 -2.721259 8.250083 9.860207 -28.789341 -3.056496 2.482148 2.038384 31.913130 -7.125000 0.000000 0.000000 85.853412 7.052588 20.443528 -11.877501 24.544937 -2.713062 -0.570855 0.460218 13.691624 7.125000 0.000000 0.000000 
41.942001 17.774658 6.534212 -111.006644 -83.011680 121.907966 -8.322017 -6.545197 -6.693129 -0.506298 3.620038 8.685723 -1.091467 7.593702 0.359238 0.009400 0.625400 1.718500 27.394074 5.112674 -9.975491 -0.215547 -5.787538 14.661917 1.633849 -11.234320 -4.799368 -0.755800 -5.552500 15.491400 1.345710 -1.229307 -5.177937 6.049115 -0.841698 0.410925 11.323820 -3.311336 -0.984041 4.650100 -1.269900 3.995500 -97.323193 -2.168488 8.502522 10.102640 -28.832336 -3.089246 2.434503 2.036338 31.313115 -7.125000 0.000000 0.000000 86.680554 6.184996 19.943106 -11.774980 24.339914 -2.596890 -0.633595 0.363521 14.093416 7.125000 0.000000 0.000000 
41.939605 17.773460 6.529821 -110.123031 -83.081013 121.041134 -8.297391 -6.566740 -6.701897 -0.505450 3.630575 8.717756 -1.062713 7.461912 0.379450 0.036400 1.231000 3.384600 27.405171 5.101027 -9.985582 -0.215976 -5.798028 14.681020 1.647832 -11.308282 -4.901020 -0.761600 -5.573300 15.551100 1.476300 -1.348523 -5.039680 6.582356 -0.894770 0.973556 11.090171 -3.201471 -1.056964 4.588500 -1.228000 3.950900 -97.612652 -2.687544 8.018455 10.000846 -28.790411 -3.080747 2.446138 2.021931 31.423231 -7.125000 0.000000 0.000000 86.451506 6.551817 19.930821 -11.594103 24.066169 -2.512042 -0.639839 0.359093 14.030624 7.125000 0.000000 0.000000 
41.937509 17.772462 6.525828 -109.241984 -83.130786 120.141391 -8.288802 -6.589983 -6.685113 -0.505714 3.630578 8.725025 -1.037440 7.343973 0.395920 0.036200 1.228200 3.376900 27.408610 5.038451 -10.003810 -0.219816 -5.815683 14.728262 1.650951 -11.323388 -4.970572 -0.768900 -5.599200 15.625800 1.457631 -1.366031 -5.037739 6.447352 -0.905767 0.977661 11.034768 -3.220782 -0.969353 4.554800 -1.235800 3.990000 -97.360886 -2.849762 7.880481 10.018952 -28.768717 -3.091048 2.460344 2.057106 31.251014 -7.125000 0.000000 0.000000 86.724051 6.527150 19.291489 -11.279735 23.591622 -2.402639 -0.630061 0.377726 14.659754 7.125000 0.000000 0.000000 
41.934415 17.771265 6.522036 -108.147714 -83.187425 119.026594 -8.281214 -6.623361 -6.665481 -0.505088 3.636726 8.748098 -1.015364 7.239620 0.393269 0.032800 1.169400 3.214900 27.420738 4.986714 -9.985287 -0.219782 -5.820765 14.735129 1.670375 -11.424366 -5.034354 -0.768400 -5.597300 15.620500 1.442963 -1.382556 -4.996491 6.339048 -0.917083 1.106706 10.960842 -3.264811 -0.839964 4.506800 -1.248700 4.088500 -97.140058 -3.158501 7.702039 10.018576 -28.714775 -3.085012 2.430377 2.050770 31.182232 -7.125000 0.000000 0.000000 87.003276 6.630234 18.741827 -11.041102 23.221290 -2.298753 -0.630353 0.389633 15.161044 7.125000 0.000000 0.000000 
41.931122 17.769468 6.518043 -107.639503 -83.249916 118.500673 -8.307866 -6.620433 -6.625350 -0.507454 3.624428 8.718337 -0.990646 7.131669 0.463249 0.041300 1.311300 3.605700 27.389676 4.913403 -10.001885 -0.223951 -5.838474 14.784176 1.669639 -11.419413 -5.096486 -0.753600 -5.544700 15.468800 1.434309 -1.427267 -4.988576 6.249784 -0.941554 1.152498 10.898767 -3.231040 -0.773430 4.478100 -1.235300 4.085100 -96.915431 -3.205102 7.629936 10.110130 -28.793970 -3.114623 2.423227 2.115680 30.811914 -7.125000 0.000000 0.000000 87.250112 6.577077 18.399970 -10.775478 22.811371 -2.203283 -0.624797 0.400085 15.351324 7.125000 0.000000 0.000000 
41.928127 17.768370 6.515149 -106.542278 -83.313578 117.389210 -8.319279 -6.625209 -6.629948 -0.506017 3.636827 8.759852 -0.961008 6.994916 0.502050 0.040300 1.295000 3.560800 27.380118 4.853952 -10.004913 -0.224968 -5.846864 14.802704 1.680177 -11.473515 -5.167297 -0.762200 -5.575300 15.557000 1.424576 -1.484421 -4.966537 6.149400 -0.972585 1.235318 10.843364 -3.225649 -0.664043 4.450700 -1.229500 4.132100 -96.736738 -3.390139 7.367357 10.072774 -28.686958 -3.093403 2.393544 2.050685 30.964805 -7.125000 0.000000 0.000000 87.476575 6.626978 17.943168 -10.485952 22.353552 -2.085914 -0.625661 0.405474 15.946484 7.125000 0.000000 0.000000 
